<mxfile host="app.diagrams.net" agent="Mozilla/5.0 (Windows NT 10.0; Win64; x64) AppleWebKit/537.36 (KHTML, like Gecko) Chrome/137.0.0.0 Safari/537.36" version="27.1.6">
  <diagram name="Pagina-1" id="kqAm9W4qM6yeUmF9mKuW">
    <mxGraphModel dx="1172" dy="1293" grid="1" gridSize="10" guides="1" tooltips="1" connect="1" arrows="1" fold="1" page="1" pageScale="1" pageWidth="827" pageHeight="1169" math="0" shadow="0">
      <root>
        <mxCell id="0" />
        <mxCell id="1" parent="0" />
        <mxCell id="apKlu5MZXHFjzN3umNYz-18" value="" style="edgeStyle=orthogonalEdgeStyle;rounded=0;orthogonalLoop=1;jettySize=auto;html=1;" edge="1" parent="1" source="apKlu5MZXHFjzN3umNYz-16" target="apKlu5MZXHFjzN3umNYz-17">
          <mxGeometry relative="1" as="geometry" />
        </mxCell>
        <mxCell id="apKlu5MZXHFjzN3umNYz-16" value="Start het speel" style="rounded=1;whiteSpace=wrap;html=1;" vertex="1" parent="1">
          <mxGeometry x="300" y="130" width="120" height="60" as="geometry" />
        </mxCell>
        <mxCell id="apKlu5MZXHFjzN3umNYz-23" value="" style="edgeStyle=orthogonalEdgeStyle;rounded=0;orthogonalLoop=1;jettySize=auto;html=1;" edge="1" parent="1" source="apKlu5MZXHFjzN3umNYz-17" target="apKlu5MZXHFjzN3umNYz-22">
          <mxGeometry relative="1" as="geometry" />
        </mxCell>
        <mxCell id="apKlu5MZXHFjzN3umNYz-17" value="team kiezen" style="shape=parallelogram;perimeter=parallelogramPerimeter;whiteSpace=wrap;html=1;fixedSize=1;rounded=1;" vertex="1" parent="1">
          <mxGeometry x="300" y="270" width="120" height="60" as="geometry" />
        </mxCell>
        <mxCell id="apKlu5MZXHFjzN3umNYz-30" value="" style="edgeStyle=orthogonalEdgeStyle;rounded=0;orthogonalLoop=1;jettySize=auto;html=1;" edge="1" parent="1" source="apKlu5MZXHFjzN3umNYz-22" target="apKlu5MZXHFjzN3umNYz-29">
          <mxGeometry relative="1" as="geometry" />
        </mxCell>
        <mxCell id="apKlu5MZXHFjzN3umNYz-22" value="random woord tonen" style="whiteSpace=wrap;html=1;rounded=1;" vertex="1" parent="1">
          <mxGeometry x="300" y="410" width="120" height="60" as="geometry" />
        </mxCell>
        <mxCell id="apKlu5MZXHFjzN3umNYz-32" value="" style="edgeStyle=orthogonalEdgeStyle;rounded=0;orthogonalLoop=1;jettySize=auto;html=1;" edge="1" parent="1" source="apKlu5MZXHFjzN3umNYz-29" target="apKlu5MZXHFjzN3umNYz-31">
          <mxGeometry relative="1" as="geometry" />
        </mxCell>
        <mxCell id="apKlu5MZXHFjzN3umNYz-29" value="toon eerste leter" style="whiteSpace=wrap;html=1;rounded=1;" vertex="1" parent="1">
          <mxGeometry x="300" y="550" width="120" height="60" as="geometry" />
        </mxCell>
        <mxCell id="apKlu5MZXHFjzN3umNYz-34" value="" style="edgeStyle=orthogonalEdgeStyle;rounded=0;orthogonalLoop=1;jettySize=auto;html=1;" edge="1" parent="1" source="apKlu5MZXHFjzN3umNYz-31" target="apKlu5MZXHFjzN3umNYz-33">
          <mxGeometry relative="1" as="geometry" />
        </mxCell>
        <mxCell id="apKlu5MZXHFjzN3umNYz-31" value="woord&lt;br&gt;raden" style="shape=parallelogram;perimeter=parallelogramPerimeter;whiteSpace=wrap;html=1;fixedSize=1;rounded=1;" vertex="1" parent="1">
          <mxGeometry x="300" y="690" width="120" height="60" as="geometry" />
        </mxCell>
        <mxCell id="apKlu5MZXHFjzN3umNYz-35" style="edgeStyle=orthogonalEdgeStyle;rounded=0;orthogonalLoop=1;jettySize=auto;html=1;entryX=0.45;entryY=-0.017;entryDx=0;entryDy=0;entryPerimeter=0;" edge="1" parent="1" source="apKlu5MZXHFjzN3umNYz-33" target="apKlu5MZXHFjzN3umNYz-37">
          <mxGeometry relative="1" as="geometry">
            <mxPoint x="200" y="830" as="targetPoint" />
          </mxGeometry>
        </mxCell>
        <mxCell id="apKlu5MZXHFjzN3umNYz-39" value="" style="edgeStyle=orthogonalEdgeStyle;rounded=0;orthogonalLoop=1;jettySize=auto;html=1;" edge="1" parent="1" source="apKlu5MZXHFjzN3umNYz-33" target="apKlu5MZXHFjzN3umNYz-38">
          <mxGeometry relative="1" as="geometry" />
        </mxCell>
        <mxCell id="apKlu5MZXHFjzN3umNYz-43" value="" style="edgeStyle=orthogonalEdgeStyle;rounded=0;orthogonalLoop=1;jettySize=auto;html=1;" edge="1" parent="1" source="apKlu5MZXHFjzN3umNYz-33" target="apKlu5MZXHFjzN3umNYz-42">
          <mxGeometry relative="1" as="geometry" />
        </mxCell>
        <mxCell id="apKlu5MZXHFjzN3umNYz-33" value="woord&lt;br&gt;graden" style="rhombus;whiteSpace=wrap;html=1;" vertex="1" parent="1">
          <mxGeometry x="320" y="790" width="80" height="80" as="geometry" />
        </mxCell>
        <mxCell id="apKlu5MZXHFjzN3umNYz-36" value="nee" style="text;html=1;align=center;verticalAlign=middle;whiteSpace=wrap;rounded=0;" vertex="1" parent="1">
          <mxGeometry x="230" y="810" width="60" height="30" as="geometry" />
        </mxCell>
        <mxCell id="apKlu5MZXHFjzN3umNYz-41" style="edgeStyle=orthogonalEdgeStyle;rounded=0;orthogonalLoop=1;jettySize=auto;html=1;" edge="1" parent="1" source="apKlu5MZXHFjzN3umNYz-37" target="apKlu5MZXHFjzN3umNYz-31">
          <mxGeometry relative="1" as="geometry">
            <mxPoint x="40" y="800" as="targetPoint" />
            <Array as="points">
              <mxPoint x="70" y="880" />
              <mxPoint x="70" y="720" />
            </Array>
          </mxGeometry>
        </mxCell>
        <mxCell id="apKlu5MZXHFjzN3umNYz-37" value="toon feedback" style="rounded=1;whiteSpace=wrap;html=1;" vertex="1" parent="1">
          <mxGeometry x="120" y="850" width="120" height="60" as="geometry" />
        </mxCell>
        <mxCell id="apKlu5MZXHFjzN3umNYz-48" value="" style="edgeStyle=orthogonalEdgeStyle;rounded=0;orthogonalLoop=1;jettySize=auto;html=1;" edge="1" parent="1" source="apKlu5MZXHFjzN3umNYz-38" target="apKlu5MZXHFjzN3umNYz-47">
          <mxGeometry relative="1" as="geometry" />
        </mxCell>
        <mxCell id="apKlu5MZXHFjzN3umNYz-52" value="" style="edgeStyle=orthogonalEdgeStyle;rounded=0;orthogonalLoop=1;jettySize=auto;html=1;" edge="1" parent="1" source="apKlu5MZXHFjzN3umNYz-38" target="apKlu5MZXHFjzN3umNYz-51">
          <mxGeometry relative="1" as="geometry" />
        </mxCell>
        <mxCell id="apKlu5MZXHFjzN3umNYz-56" value="" style="edgeStyle=orthogonalEdgeStyle;rounded=0;orthogonalLoop=1;jettySize=auto;html=1;" edge="1" parent="1" source="apKlu5MZXHFjzN3umNYz-38" target="apKlu5MZXHFjzN3umNYz-55">
          <mxGeometry relative="1" as="geometry" />
        </mxCell>
        <mxCell id="apKlu5MZXHFjzN3umNYz-38" value="grabellen uit&amp;nbsp;&lt;br&gt;de ballenbak" style="whiteSpace=wrap;html=1;" vertex="1" parent="1">
          <mxGeometry x="510" y="800" width="120" height="60" as="geometry" />
        </mxCell>
        <mxCell id="apKlu5MZXHFjzN3umNYz-40" value="ja" style="text;html=1;align=center;verticalAlign=middle;whiteSpace=wrap;rounded=0;" vertex="1" parent="1">
          <mxGeometry x="390" y="810" width="60" height="30" as="geometry" />
        </mxCell>
        <mxCell id="apKlu5MZXHFjzN3umNYz-46" value="" style="edgeStyle=orthogonalEdgeStyle;rounded=0;orthogonalLoop=1;jettySize=auto;html=1;" edge="1" parent="1" source="apKlu5MZXHFjzN3umNYz-42" target="apKlu5MZXHFjzN3umNYz-45">
          <mxGeometry relative="1" as="geometry" />
        </mxCell>
        <mxCell id="apKlu5MZXHFjzN3umNYz-75" value="" style="edgeStyle=orthogonalEdgeStyle;rounded=0;orthogonalLoop=1;jettySize=auto;html=1;" edge="1" parent="1" source="apKlu5MZXHFjzN3umNYz-42" target="apKlu5MZXHFjzN3umNYz-74">
          <mxGeometry relative="1" as="geometry" />
        </mxCell>
        <mxCell id="apKlu5MZXHFjzN3umNYz-42" value="5 keer&amp;nbsp;&lt;br&gt;fout" style="rhombus;whiteSpace=wrap;html=1;" vertex="1" parent="1">
          <mxGeometry x="320" y="950" width="80" height="80" as="geometry" />
        </mxCell>
        <mxCell id="apKlu5MZXHFjzN3umNYz-45" value="je hebt verloren" style="whiteSpace=wrap;html=1;" vertex="1" parent="1">
          <mxGeometry x="80" y="1390" width="120" height="60" as="geometry" />
        </mxCell>
        <mxCell id="apKlu5MZXHFjzN3umNYz-62" style="edgeStyle=orthogonalEdgeStyle;rounded=0;orthogonalLoop=1;jettySize=auto;html=1;" edge="1" parent="1" source="apKlu5MZXHFjzN3umNYz-47" target="apKlu5MZXHFjzN3umNYz-22">
          <mxGeometry relative="1" as="geometry">
            <Array as="points">
              <mxPoint x="840" y="910" />
              <mxPoint x="840" y="440" />
            </Array>
          </mxGeometry>
        </mxCell>
        <mxCell id="apKlu5MZXHFjzN3umNYz-68" value="" style="edgeStyle=orthogonalEdgeStyle;rounded=0;orthogonalLoop=1;jettySize=auto;html=1;" edge="1" parent="1" source="apKlu5MZXHFjzN3umNYz-47" target="apKlu5MZXHFjzN3umNYz-67">
          <mxGeometry relative="1" as="geometry" />
        </mxCell>
        <mxCell id="apKlu5MZXHFjzN3umNYz-47" value="goren&lt;br&gt;bal" style="rhombus;whiteSpace=wrap;html=1;" vertex="1" parent="1">
          <mxGeometry x="700" y="870" width="80" height="80" as="geometry" />
        </mxCell>
        <mxCell id="apKlu5MZXHFjzN3umNYz-63" style="edgeStyle=orthogonalEdgeStyle;rounded=0;orthogonalLoop=1;jettySize=auto;html=1;entryX=1;entryY=0.5;entryDx=0;entryDy=0;" edge="1" parent="1" source="apKlu5MZXHFjzN3umNYz-51" target="apKlu5MZXHFjzN3umNYz-22">
          <mxGeometry relative="1" as="geometry">
            <Array as="points">
              <mxPoint x="680" y="920" />
              <mxPoint x="680" y="440" />
            </Array>
          </mxGeometry>
        </mxCell>
        <mxCell id="apKlu5MZXHFjzN3umNYz-65" value="" style="edgeStyle=orthogonalEdgeStyle;rounded=0;orthogonalLoop=1;jettySize=auto;html=1;" edge="1" parent="1" source="apKlu5MZXHFjzN3umNYz-51" target="apKlu5MZXHFjzN3umNYz-64">
          <mxGeometry relative="1" as="geometry" />
        </mxCell>
        <mxCell id="apKlu5MZXHFjzN3umNYz-51" value="rode&lt;br&gt;bal" style="rhombus;whiteSpace=wrap;html=1;" vertex="1" parent="1">
          <mxGeometry x="580" y="880" width="80" height="80" as="geometry" />
        </mxCell>
        <mxCell id="apKlu5MZXHFjzN3umNYz-58" value="" style="edgeStyle=orthogonalEdgeStyle;rounded=0;orthogonalLoop=1;jettySize=auto;html=1;" edge="1" parent="1" source="apKlu5MZXHFjzN3umNYz-55" target="apKlu5MZXHFjzN3umNYz-57">
          <mxGeometry relative="1" as="geometry" />
        </mxCell>
        <mxCell id="apKlu5MZXHFjzN3umNYz-55" value="nummer" style="rhombus;whiteSpace=wrap;html=1;" vertex="1" parent="1">
          <mxGeometry x="430" y="900" width="80" height="80" as="geometry" />
        </mxCell>
        <mxCell id="apKlu5MZXHFjzN3umNYz-61" style="edgeStyle=orthogonalEdgeStyle;rounded=0;orthogonalLoop=1;jettySize=auto;html=1;entryX=1;entryY=0.5;entryDx=0;entryDy=0;" edge="1" parent="1" source="apKlu5MZXHFjzN3umNYz-57" target="apKlu5MZXHFjzN3umNYz-22">
          <mxGeometry relative="1" as="geometry">
            <Array as="points">
              <mxPoint x="920" y="1100" />
              <mxPoint x="920" y="440" />
            </Array>
          </mxGeometry>
        </mxCell>
        <mxCell id="apKlu5MZXHFjzN3umNYz-72" value="" style="edgeStyle=orthogonalEdgeStyle;rounded=0;orthogonalLoop=1;jettySize=auto;html=1;" edge="1" parent="1" source="apKlu5MZXHFjzN3umNYz-57" target="apKlu5MZXHFjzN3umNYz-71">
          <mxGeometry relative="1" as="geometry" />
        </mxCell>
        <mxCell id="apKlu5MZXHFjzN3umNYz-57" value="toon pinog kaart met gevinkt nummer" style="whiteSpace=wrap;html=1;" vertex="1" parent="1">
          <mxGeometry x="410" y="1070" width="120" height="60" as="geometry" />
        </mxCell>
        <mxCell id="apKlu5MZXHFjzN3umNYz-66" style="edgeStyle=orthogonalEdgeStyle;rounded=0;orthogonalLoop=1;jettySize=auto;html=1;" edge="1" parent="1" source="apKlu5MZXHFjzN3umNYz-64" target="apKlu5MZXHFjzN3umNYz-45">
          <mxGeometry relative="1" as="geometry" />
        </mxCell>
        <mxCell id="apKlu5MZXHFjzN3umNYz-64" value="3 rode&amp;nbsp;&lt;br&gt;ballen" style="rhombus;whiteSpace=wrap;html=1;" vertex="1" parent="1">
          <mxGeometry x="570" y="1000" width="80" height="80" as="geometry" />
        </mxCell>
        <mxCell id="apKlu5MZXHFjzN3umNYz-70" value="" style="edgeStyle=orthogonalEdgeStyle;rounded=0;orthogonalLoop=1;jettySize=auto;html=1;" edge="1" parent="1" source="apKlu5MZXHFjzN3umNYz-67" target="apKlu5MZXHFjzN3umNYz-69">
          <mxGeometry relative="1" as="geometry">
            <Array as="points">
              <mxPoint x="750" y="1470" />
            </Array>
          </mxGeometry>
        </mxCell>
        <mxCell id="apKlu5MZXHFjzN3umNYz-67" value="3 groene&lt;br&gt;ballen" style="rhombus;whiteSpace=wrap;html=1;" vertex="1" parent="1">
          <mxGeometry x="710" y="1010" width="80" height="80" as="geometry" />
        </mxCell>
        <mxCell id="apKlu5MZXHFjzN3umNYz-69" value="je hebt gewonen" style="whiteSpace=wrap;html=1;" vertex="1" parent="1">
          <mxGeometry x="320" y="1440" width="120" height="60" as="geometry" />
        </mxCell>
        <mxCell id="apKlu5MZXHFjzN3umNYz-73" style="edgeStyle=orthogonalEdgeStyle;rounded=0;orthogonalLoop=1;jettySize=auto;html=1;entryX=0.5;entryY=0;entryDx=0;entryDy=0;" edge="1" parent="1" source="apKlu5MZXHFjzN3umNYz-71" target="apKlu5MZXHFjzN3umNYz-69">
          <mxGeometry relative="1" as="geometry" />
        </mxCell>
        <mxCell id="apKlu5MZXHFjzN3umNYz-71" value="&lt;br&gt;&lt;span style=&quot;color: rgb(51, 51, 51); font-family: &amp;quot;Open Sans&amp;quot;, Helvetica, Arial, sans-serif; font-size: 16px; font-style: normal; font-variant-ligatures: normal; font-variant-caps: normal; font-weight: 400; letter-spacing: normal; orphans: 2; text-align: left; text-indent: 0px; text-transform: none; widows: 2; word-spacing: 0px; -webkit-text-stroke-width: 0px; white-space: normal; background-color: rgb(255, 255, 255); text-decoration-thickness: initial; text-decoration-style: initial; text-decoration-color: initial; float: none; display: inline !important;&quot;&gt;horizontaal, verticaal of diagonaal&lt;br&gt;&lt;/span&gt;op de kaart" style="rhombus;whiteSpace=wrap;html=1;" vertex="1" parent="1">
          <mxGeometry x="360" y="1200" width="190" height="150" as="geometry" />
        </mxCell>
        <mxCell id="apKlu5MZXHFjzN3umNYz-76" style="edgeStyle=orthogonalEdgeStyle;rounded=0;orthogonalLoop=1;jettySize=auto;html=1;" edge="1" parent="1" source="apKlu5MZXHFjzN3umNYz-74" target="apKlu5MZXHFjzN3umNYz-45">
          <mxGeometry relative="1" as="geometry" />
        </mxCell>
        <mxCell id="apKlu5MZXHFjzN3umNYz-74" value="3 woorden&amp;nbsp;&lt;br&gt;op een rij&lt;br&gt;fout" style="rhombus;whiteSpace=wrap;html=1;" vertex="1" parent="1">
          <mxGeometry x="220" y="1100" width="80" height="80" as="geometry" />
        </mxCell>
      </root>
    </mxGraphModel>
  </diagram>
</mxfile>
